<?xml version="1.0" encoding="utf-8"?>
<!-- Generator: Adobe Illustrator 19.2.1, SVG Export Plug-In . SVG Version: 6.00 Build 0)  -->
<svg version="1.1" id="layer" xmlns="http://www.w3.org/2000/svg" xmlns:xlink="http://www.w3.org/1999/xlink" x="0px" y="0px"
	 viewBox="0 0 652 652" style="enable-background:new 0 0 652 652;" xml:space="preserve">
<style type="text/css">
	.st0{clip-path:url(#SVGID_2_);fill:url(#SVGID_3_);}
	.st1{fill:#1C75BC;}
	.st2{fill:#00ACA1;}
</style>
<g>
	<defs>
		<path id="SVGID_1_" d="M53.2,219.1c0,79,64.1,143.1,143.1,143.1c79.1,0,143.2-64.1,143.2-143.1c0-79.1-64.1-143.2-143.2-143.2
			C117.3,75.9,53.2,140,53.2,219.1"/>
	</defs>
	<clipPath id="SVGID_2_">
		<use xlink:href="#SVGID_1_"  style="overflow:visible;"/>
	</clipPath>
	
		<radialGradient id="SVGID_3_" cx="-1.2471" cy="742.0926" r="12.8457" gradientTransform="matrix(11.143 0 0 -11.143 210.2564 8488.1895)" gradientUnits="userSpaceOnUse">
		<stop  offset="0" style="stop-color:#FFDD44"/>
		<stop  offset="1" style="stop-color:#F7BC60"/>
	</radialGradient>
	<rect x="53.2" y="75.9" class="st0" width="286.3" height="286.3"/>
</g>
<g>
	<path class="st1" d="M-111,357.8c0,0,262.9,61,492.8-50.6c173.5-92.3,286.9-141.2,382.4-95.3C761,207,514.7,69,314.6,241.3
		C314.6,241.3,142.3,373-111,357.8"/>
</g>
<g>
	<path class="st2" d="M12.6,373.1c0,0,287.6,27.6,452.7-36.6c165.1-64.2,213.6-54.4,277.7-25.7c0,0-182.6-105-361.2-3.5
		C381.7,307.3,238.7,382.1,12.6,373.1"/>
	<path class="st1" d="M25,435.2v2.4c-4,0.9-6.7,2.1-8.1,3.6c-1.4,1.5-2.1,4.6-2.1,9.4v52c0,3.6,0.6,6.2,2,7.7c1.3,1.5,4,2.7,8.2,3.7
		v2.4h-38.4V514c2.9-0.7,5-1.5,6.5-2.4c1.4-0.9,2.4-1.9,3-3.3c0.6-1.3,0.8-3.8,0.8-7.5V449c0-3.7-0.7-6.2-2-7.7
		c-1.3-1.5-4.1-2.7-8.3-3.7v-2.4H25z"/>
	<path class="st1" d="M94,433.1v21.4h-2.4c-1.6-4.7-4.3-8.7-8.1-11.9c-3.9-3.2-7.8-4.9-11.9-4.9c-3.7,0-6.8,1.1-9.4,3.2
		c-2.6,2.1-3.9,4.7-3.9,7.8c0,1.5,0.3,3,1,4.4c0.7,1.5,1.7,2.8,3,4.1c1.3,1.3,5.4,4.1,12.4,8.5c7.1,4.4,11.8,7.4,13.8,9.1
		c2.1,1.7,4.1,3.9,5.9,6.6c2.9,4.1,4.3,8.6,4.3,13.5c0,7.2-2.5,13-7.6,17.2c-5.1,4.3-11.2,6.4-18.5,6.4c-3.9,0-8.5-0.7-13.9-2.1
		c-2.8-0.7-4.8-1.1-6-1.1c-1.9,0-3.3,0.9-4.1,2.6h-2.4v-24.4h2.4c1.2,6.3,3.8,11.3,7.6,14.9c3.8,3.6,8.6,5.5,14.2,5.5
		c4.3,0,7.9-1.1,10.7-3.3c2.8-2.2,4.2-4.9,4.2-8.3c0-2.7-0.9-5.3-2.7-7.7c-1.8-2.4-6.7-6-14.5-10.6c-7.2-4.3-12-7.7-14.4-10
		c-2.4-2.4-4.1-5-5.3-7.9c-1.2-2.9-1.8-6-1.8-9.3c0-7,2.4-12.7,7.1-17.1c4.8-4.4,10.9-6.7,18.4-6.7c2.3,0,5.1,0.4,8.3,1.2
		c3.2,0.7,5.5,1.1,6.9,1.1c1.3,0,2.7-0.8,4.2-2.2H94z"/>
	<path class="st1" d="M157.9,435.2v2.4c-4.3,1.1-7.1,2.3-8.4,3.7c-1.3,1.4-1.9,3.7-1.9,7v54.7c0,3.4,0.9,5.7,2.7,6.9
		c1.8,1.2,5.2,1.8,10.1,1.8c5.2,0,9.2-1.1,12.1-3.4c2.9-2.3,5.9-6.6,9-13h2.4l-2.4,21.1h-61.9V514c4.3-1.1,7.1-2.4,8.3-3.9
		c1.2-1.5,1.8-4.6,1.8-9.3V449c0-3.7-0.7-6.2-2-7.7c-1.3-1.5-4-2.7-8.2-3.7v-2.4H157.9z"/>
	<path class="st1" d="M248,516.4V514c3.3-0.6,5.7-1.4,7.1-2.3c1.4-0.9,2.1-2.2,2.1-3.9c0-1.3-0.5-3.4-1.6-6.2l-4.7-12.5h-29l-4,10.8
		c-1,2.7-1.5,5-1.5,6.6c0,3.6,2.7,6.1,8.1,7.5v2.4h-26.2V514c3.2-0.5,5.9-2.2,8.3-4.9c2.4-2.7,4.7-7.2,7-13.5l23.3-62.5h11.1
		l24.7,65c2.3,5.8,4.5,9.8,6.7,12.1c2.2,2.3,5,3.6,8.5,3.8v2.4H248z M224.4,483.3h24.2l-12.4-32.9L224.4,483.3z"/>
	<path class="st1" d="M364.6,437.6v-2.4H392v2.4c-7.9,0.5-11.8,4.9-11.8,13.3v66.5h-2.7l-58.4-65.8v49.6c0,4.3,0.8,7.4,2.4,9.1
		c1.6,1.7,4.8,3,9.6,3.8v2.4h-28V514c3.8-0.6,6.5-1.9,8.2-3.9c1.7-2,2.5-5.1,2.5-9.4v-55.1c-3.2-3.3-5.3-5.3-6.5-6.2
		c-1.2-0.9-2.6-1.5-4.2-1.8v-2.4h24.4l47.5,54.4v-36.5c0-5.4-0.7-9.1-2.1-11.2C371.3,439.9,368.6,438.5,364.6,437.6"/>
	<path class="st1" d="M407.4,516.4V514c4.3-1.2,7.1-2.5,8.4-3.9c1.3-1.4,1.9-4.5,1.9-9.2v-51.8c0-3.7-0.6-6.2-1.9-7.7
		c-1.3-1.5-4.1-2.7-8.4-3.9v-2.4h41.5c15.1,0,27,3.8,35.8,11.4c8.7,7.6,13.1,17.7,13.1,30.2c0,12-3.9,21.6-11.7,28.8
		c-7.8,7.2-18.4,10.8-31.7,10.8H407.4z M446.2,439.8h-10.6v62.4c0,3.5,1,5.9,3.1,7.4c2,1.4,5.4,2.2,10.2,2.2
		c9.4,0,16.7-3.1,21.8-9.3c5.2-6.2,7.7-15.1,7.7-26.4c0-11.2-2.8-20-8.5-26.5C464.2,443.1,456.3,439.8,446.2,439.8"/>
	<path class="st1" d="M565.8,463.2h2.6v25.1h-2.6c-1-6.9-4.7-10.4-11.3-10.4h-14.3v23.9c0,3.6,0.8,6.2,2.5,7.7
		c1.7,1.5,4.5,2.2,8.6,2.2h4.7c7.9,0,13.6-5,17-15.1h2.4l-1.5,19.7h-61.8V514c4.1-0.8,6.8-2.1,8.1-3.7c1.3-1.6,2-4.7,2-9.3v-52.2
		c0-3.8-0.7-6.4-2.1-7.9c-1.4-1.5-4.1-2.6-8.1-3.4v-2.4h60.9v18h-2.4c-1.4-5.3-3-8.9-5-10.7c-2-1.8-5.2-2.7-9.7-2.7h-15.7v33.5h14.3
		c3.3,0,5.7-0.8,7.5-2.3C563.7,469.5,565,466.9,565.8,463.2"/>
	<path class="st1" d="M596,516.4V514c6.9-0.5,10.3-4,10.3-10.4v-55c0-3.8-0.7-6.4-2.1-7.8c-1.4-1.5-4.1-2.6-8.2-3.3v-2.4h38.6
		c10.1,0,17.9,1.8,23.4,5.3c5.4,3.6,8.2,8.6,8.2,15.1c0,4.7-1.4,8.6-4.3,12c-2.8,3.3-6.9,5.8-12.2,7.3v0.3c1.9,0.4,3.9,2,6.2,4.7
		c2.2,2.7,5.4,8,9.6,15.8c4.1,7.6,7.1,12.5,9,14.5c1.9,2,4.4,3.3,7.7,3.8v2.4h-23.4c-3.1-3.6-7-10.2-11.8-19.7
		c-3.3-6.5-5.8-10.9-7.4-13.1c-1.6-2.2-3.3-3.7-5-4.6c-1.7-0.9-5.2-1.3-10.4-1.3v24.9c0,3.6,0.8,6.2,2.4,8c1.6,1.7,4.3,2.9,8.1,3.4
		v2.4H596z M629.8,439.8h-5.6v33.3c1.4,0.1,2.7,0.1,3.9,0.1c6.5,0,11.2-1.4,14.1-4.2c3-2.8,4.4-7.2,4.4-13.2
		C646.7,445.2,641.1,439.8,629.8,439.8"/>
	<path class="st1" d="M203.6,569.7v-8.4h-13.8v9.1c0,1.3,0.2,2.2,0.7,2.7c0.4,0.5,1.4,0.9,2.9,1.3v0.8h-13.5v-0.8
		c1-0.3,1.8-0.5,2.3-0.8c0.5-0.3,0.9-0.7,1.1-1.2c0.2-0.5,0.3-1.3,0.3-2.6v-18.3c0-1.3-0.2-2.2-0.7-2.7c-0.5-0.5-1.5-1-2.9-1.3v-0.8
		h13.5v0.8c-1.4,0.3-2.3,0.7-2.8,1.3c-0.5,0.5-0.7,1.4-0.7,2.5v8h13.8v-7.8c0-1.3-0.2-2.2-0.7-2.7c-0.5-0.5-1.4-1-2.9-1.3v-0.8h13.5
		v0.8c-1.5,0.4-2.5,0.8-3,1.3c-0.4,0.5-0.7,1.6-0.7,3.3v18.3c0,1.3,0.2,2.2,0.7,2.7c0.5,0.5,1.5,1,3,1.3v0.8H200v-0.8
		c1.4-0.3,2.3-0.8,2.8-1.3C203.3,572.5,203.6,571.4,203.6,569.7"/>
	<path class="st1" d="M254.1,560.9c0,4.4-1.5,8-4.4,10.8c-2.9,2.8-6.7,4.2-11.2,4.2c-4.5,0-8.3-1.4-11.2-4.2
		c-2.9-2.8-4.4-6.4-4.4-10.8c0-4.4,1.5-8,4.4-10.8c2.9-2.8,6.7-4.3,11.2-4.3c4.6,0,8.3,1.4,11.2,4.3
		C252.6,552.9,254.1,556.5,254.1,560.9 M247.2,561.1c0-4.5-0.7-7.8-2.2-10.2c-1.5-2.3-3.7-3.5-6.5-3.5c-2.8,0-5,1.2-6.5,3.5
		c-1.5,2.3-2.2,5.7-2.2,10.2c0,4.2,0.7,7.4,2.2,9.7c1.5,2.3,3.6,3.5,6.5,3.5c2.7,0,4.9-1.1,6.5-3.4
		C246.4,568.6,247.2,565.3,247.2,561.1"/>
	<path class="st1" d="M277,546.5v0.8c-1.5,0.4-2.5,0.8-3,1.3c-0.4,0.5-0.7,1.3-0.7,2.5v19.3c0,1.2,0.3,2,0.9,2.5
		c0.6,0.4,1.8,0.6,3.6,0.6c1.8,0,3.3-0.4,4.3-1.2c1-0.8,2.1-2.3,3.2-4.6h0.8l-0.8,7.4h-21.9v-0.8c1.5-0.4,2.5-0.8,2.9-1.4
		c0.4-0.5,0.7-1.6,0.7-3.3v-18.3c0-1.3-0.2-2.2-0.7-2.7c-0.5-0.5-1.4-1-2.9-1.3v-0.8H277z"/>
	<path class="st1" d="M311.7,546.5v0.8c-1.4,0.3-2.4,0.7-2.9,1.3c-0.5,0.5-0.7,1.6-0.7,3.3v18.4c0,1.3,0.2,2.2,0.7,2.7
		c0.5,0.5,1.4,1,2.9,1.3v0.8h-13.5v-0.8c1-0.3,1.8-0.5,2.3-0.8c0.5-0.3,0.8-0.7,1-1.2c0.2-0.5,0.3-1.3,0.3-2.7v-18.3
		c0-1.3-0.2-2.2-0.7-2.7c-0.5-0.5-1.4-1-2.9-1.3v-0.8H311.7z"/>
	<path class="st1" d="M323.8,575.2v-0.8c1.5-0.4,2.5-0.9,3-1.4c0.4-0.5,0.7-1.6,0.7-3.3v-18.3c0-1.3-0.2-2.2-0.7-2.7
		c-0.5-0.5-1.4-1-3-1.4v-0.8h14.7c5.3,0,9.5,1.3,12.6,4c3.1,2.7,4.6,6.2,4.6,10.6c0,4.2-1.4,7.6-4.1,10.2c-2.7,2.5-6.5,3.8-11.2,3.8
		H323.8z M337.5,548.2h-3.7v22c0,1.2,0.4,2.1,1.1,2.6c0.7,0.5,1.9,0.8,3.6,0.8c3.3,0,5.9-1.1,7.7-3.3c1.8-2.2,2.7-5.3,2.7-9.3
		c0-3.9-1-7.1-3-9.4C343.9,549.3,341.1,548.2,337.5,548.2"/>
	<path class="st1" d="M380.6,575.2v-0.8c1.2-0.2,2-0.5,2.5-0.8c0.5-0.3,0.7-0.8,0.7-1.4c0-0.5-0.2-1.2-0.6-2.2l-1.7-4.4h-10.2
		l-1.4,3.8c-0.4,1-0.5,1.8-0.5,2.3c0,1.3,1,2.2,2.9,2.7v0.8h-9.3v-0.8c1.1-0.2,2.1-0.8,2.9-1.7c0.8-1,1.7-2.6,2.5-4.8l8.2-22h3.9
		l8.7,22.9c0.8,2,1.6,3.5,2.3,4.3c0.8,0.8,1.8,1.3,3,1.3v0.8H380.6z M372.3,563.5h8.5l-4.4-11.6L372.3,563.5z"/>
	<path class="st1" d="M423.3,550.5l-6.8,9.6v10.2c0,1.3,0.3,2.2,0.8,2.8c0.5,0.6,1.5,1,2.9,1.2v0.8h-13.6v-0.8
		c1.3-0.2,2.3-0.6,2.8-1.2c0.6-0.6,0.8-1.6,0.8-3v-8.4l-7.5-11.4c-0.7-1.1-1.4-1.8-1.9-2.2c-0.6-0.4-1.3-0.7-2.1-0.7v-0.8h13.1v0.8
		c-1.4,0.1-2.1,0.5-2.1,1.4c0,0.5,0.3,1.2,0.8,2.1l4.9,7.7l4.4-6.3c0.7-1,1-1.9,1-2.6c0-1.1-0.7-1.8-2.2-2.2v-0.8h8.9v0.8
		C426.1,547.5,424.6,548.6,423.3,550.5"/>
	<path class="st1" d="M469.2,575.2v-0.8c2.4-0.2,3.6-1.4,3.6-3.7v-19.4c0-1.3-0.2-2.2-0.7-2.8c-0.5-0.5-1.5-0.9-2.9-1.2v-0.8h13.6
		c3.6,0,6.3,0.6,8.2,1.9c1.9,1.3,2.9,3,2.9,5.3c0,1.6-0.5,3.1-1.5,4.2c-1,1.2-2.4,2-4.3,2.6v0.1c0.7,0.1,1.4,0.7,2.2,1.7
		c0.8,1,1.9,2.8,3.4,5.6c1.5,2.7,2.5,4.4,3.2,5.1c0.7,0.7,1.6,1.2,2.7,1.3v0.8h-8.3c-1.1-1.3-2.5-3.6-4.2-7c-1.2-2.3-2-3.9-2.6-4.6
		c-0.6-0.8-1.2-1.3-1.8-1.6c-0.6-0.3-1.8-0.5-3.7-0.5v8.8c0,1.2,0.3,2.2,0.8,2.8c0.6,0.6,1.5,1,2.8,1.2v0.8H469.2z M481.1,548.2h-2
		v11.8c0.5,0,1,0.1,1.4,0.1c2.3,0,3.9-0.5,5-1.5c1-1,1.6-2.5,1.6-4.7C487.1,550.1,485.1,548.2,481.1,548.2"/>
	<path class="st1" d="M529.1,556.4h0.9v8.9h-0.9c-0.3-2.4-1.7-3.7-4-3.7h-5v8.4c0,1.3,0.3,2.2,0.9,2.7c0.6,0.5,1.6,0.8,3,0.8h1.7
		c2.8,0,4.8-1.8,6-5.3h0.8l-0.5,7h-21.8v-0.8c1.4-0.3,2.4-0.7,2.9-1.3c0.5-0.6,0.7-1.7,0.7-3.3v-18.4c0-1.3-0.2-2.3-0.7-2.8
		c-0.5-0.5-1.5-0.9-2.9-1.2v-0.8h21.5v6.4h-0.8c-0.5-1.9-1.1-3.1-1.8-3.8c-0.7-0.6-1.8-1-3.4-1h-5.6V560h5c1.1,0,2-0.3,2.6-0.8
		C528.4,558.6,528.8,557.7,529.1,556.4"/>
	<path class="st1" d="M564.4,545.8v7.5h-0.8c-0.6-1.7-1.5-3.1-2.9-4.2c-1.4-1.1-2.8-1.7-4.2-1.7c-1.3,0-2.4,0.4-3.3,1.1
		c-0.9,0.7-1.4,1.7-1.4,2.7c0,0.5,0.1,1,0.3,1.6c0.2,0.5,0.6,1,1.1,1.4c0.4,0.4,1.9,1.4,4.4,3c2.5,1.6,4.1,2.6,4.9,3.2
		c0.7,0.6,1.4,1.4,2.1,2.3c1,1.5,1.5,3,1.5,4.8c0,2.6-0.9,4.6-2.7,6.1c-1.8,1.5-4,2.2-6.5,2.2c-1.4,0-3-0.2-4.9-0.8
		c-1-0.2-1.7-0.4-2.1-0.4c-0.7,0-1.2,0.3-1.5,0.9h-0.8v-8.6h0.8c0.4,2.2,1.3,4,2.7,5.3c1.3,1.3,3,1.9,5,1.9c1.5,0,2.8-0.4,3.8-1.1
		c1-0.8,1.5-1.7,1.5-2.9c0-1-0.3-1.9-1-2.7c-0.6-0.9-2.3-2.1-5.1-3.8c-2.6-1.5-4.3-2.7-5.1-3.5c-0.8-0.8-1.5-1.7-1.9-2.8
		c-0.4-1-0.6-2.1-0.6-3.3c0-2.5,0.8-4.5,2.5-6c1.7-1.6,3.8-2.4,6.5-2.4c0.8,0,1.8,0.1,2.9,0.4c1.2,0.3,2,0.4,2.4,0.4
		c0.5,0,1-0.3,1.5-0.8H564.4z"/>
	<path class="st1" d="M607.9,560.9c0,4.4-1.5,8-4.4,10.8c-2.9,2.8-6.7,4.2-11.2,4.2c-4.5,0-8.3-1.4-11.2-4.2
		c-2.9-2.8-4.4-6.4-4.4-10.8c0-4.4,1.5-8,4.4-10.8c2.9-2.8,6.7-4.3,11.2-4.3c4.6,0,8.3,1.4,11.2,4.3
		C606.5,552.9,607.9,556.5,607.9,560.9 M601,561.1c0-4.5-0.7-7.8-2.2-10.2c-1.5-2.3-3.7-3.5-6.5-3.5c-2.8,0-5,1.2-6.5,3.5
		c-1.5,2.3-2.2,5.7-2.2,10.2c0,4.2,0.8,7.4,2.2,9.7c1.5,2.3,3.7,3.5,6.5,3.5c2.8,0,4.9-1.1,6.4-3.4C600.3,568.6,601,565.3,601,561.1
		"/>
	<path class="st1" d="M617.9,575.2v-0.8c2.4-0.2,3.6-1.4,3.6-3.7v-19.4c0-1.3-0.2-2.2-0.7-2.8c-0.5-0.5-1.5-0.9-2.9-1.2v-0.8h13.6
		c3.6,0,6.3,0.6,8.2,1.9c1.9,1.3,2.9,3,2.9,5.3c0,1.6-0.5,3.1-1.5,4.2c-1,1.2-2.4,2-4.3,2.6v0.1c0.7,0.1,1.4,0.7,2.2,1.7
		c0.8,1,1.9,2.8,3.4,5.6c1.5,2.7,2.5,4.4,3.2,5.1c0.7,0.7,1.6,1.2,2.7,1.3v0.8H640c-1.1-1.3-2.5-3.6-4.2-7c-1.2-2.3-2-3.9-2.6-4.6
		c-0.6-0.8-1.2-1.3-1.8-1.6c-0.6-0.3-1.8-0.5-3.7-0.5v8.8c0,1.2,0.3,2.2,0.8,2.8c0.6,0.6,1.5,1,2.8,1.2v0.8H617.9z M629.8,548.2h-2
		v11.8c0.5,0,1,0.1,1.4,0.1c2.3,0,3.9-0.5,5-1.5c1-1,1.6-2.5,1.6-4.7C635.7,550.1,633.7,548.2,629.8,548.2"/>
	<path class="st1" d="M676.2,574.4v0.8h-13.5v-0.8c1.4-0.3,2.4-0.7,2.9-1.2c0.5-0.6,0.7-1.6,0.7-3.1v-21.9h-2.9
		c-1.7,0-3.1,0.4-4.1,1.1c-1,0.8-1.8,2-2.3,3.6h-0.8l0.3-6.9h0.9c0.6,0.4,1.6,0.6,2.8,0.6h18.5c1.3,0,2.2-0.2,2.8-0.6h0.9l0.3,6.9
		h-0.8c-0.5-1.6-1.2-2.8-2.3-3.6c-1-0.7-2.4-1.1-4.1-1.1h-2.9v21.9c0,1.4,0.3,2.4,0.7,3C673.9,573.7,674.9,574.1,676.2,574.4"/>
	<path class="st1" d="M520.2,403.1v1.7H493v-1.7c2.9-0.5,4.8-1.4,5.8-2.5c1-1.1,1.5-3.2,1.5-6.2v-44.3h-5.8c-3.5,0-6.3,0.8-8.3,2.3
		c-2,1.5-3.6,3.9-4.5,7.2h-1.7l0.6-14h1.8c1.3,0.8,3.2,1.2,5.7,1.2h37.4c2.6,0,4.5-0.4,5.7-1.2h1.8l0.6,14h-1.7
		c-1-3.3-2.5-5.7-4.6-7.2c-2-1.5-4.8-2.3-8.3-2.3h-5.8v44.4c0,2.8,0.5,4.9,1.5,6.1C515.6,401.8,517.4,402.7,520.2,403.1"/>
	<path class="st1" d="M598.6,393.8v-17.1h-27.8V395c0,2.7,0.5,4.5,1.3,5.5c0.9,1,2.8,1.9,5.8,2.6v1.7h-27.3v-1.7
		c2.1-0.5,3.6-1.1,4.6-1.7c1-0.6,1.7-1.4,2.1-2.3c0.4-1,0.6-2.7,0.6-5.3v-37.1c0-2.6-0.5-4.5-1.4-5.5c-1-1.1-2.9-1.9-5.9-2.6v-1.7
		h27.3v1.7c-2.8,0.7-4.7,1.5-5.7,2.6c-1,1.1-1.5,2.8-1.5,5.1v16.3h27.8v-15.8c0-2.6-0.5-4.5-1.4-5.5c-1-1.1-2.9-1.9-5.8-2.6v-1.7
		h27.4v1.7c-3.1,0.8-5.1,1.7-6,2.7c-0.9,1-1.4,3.2-1.4,6.7V395c0,2.6,0.5,4.4,1.4,5.4c0.9,1.1,2.9,2,6,2.7v1.7h-27.4v-1.7
		c2.8-0.6,4.7-1.5,5.7-2.6C598.1,399.4,598.6,397.1,598.6,393.8"/>
	<path class="st1" d="M676.3,366.8h1.9v18h-1.9c-0.7-4.9-3.4-7.4-8-7.4h-10.2v17c0,2.6,0.6,4.5,1.8,5.5c1.2,1.1,3.2,1.6,6.1,1.6h3.4
		c5.7,0,9.7-3.6,12.2-10.8h1.7l-1.1,14.1h-44.1v-1.7c2.9-0.6,4.9-1.5,5.8-2.6c1-1.2,1.4-3.4,1.4-6.7v-37.3c0-2.7-0.5-4.6-1.5-5.7
		c-1-1.1-2.9-1.8-5.8-2.4v-1.7h43.5v12.9h-1.7c-1-3.8-2.2-6.3-3.6-7.6c-1.4-1.3-3.7-2-6.9-2h-11.2v24h10.2c2.3,0,4.1-0.6,5.3-1.7
		C674.9,371.3,675.8,369.5,676.3,366.8"/>
</g>
</svg>
